 HIERARCHY
ROOT Hips
{
   OFFSET 0.0 0.0 96.619003
   CHANNELS 6 Xposition Yposition Zposition Yrotation Xrotation Zrotation
   JOINT RightUpLeg
   {
      OFFSET -11.0 0.0 0.0
      CHANNELS 3 Yrotation Xrotation Zrotation
      JOINT RightLeg
      {
         OFFSET 0.0 -45.062 0.0
         CHANNELS 3 Yrotation Xrotation Zrotation
         JOINT RightFoot
         {
            OFFSET 0.0 -42.057999 0.0
            CHANNELS 3 Yrotation Xrotation Zrotation
              End Site
              {
                  OFFSET 0 0 0
              }
         }
      }
   }
   JOINT LeftUpLeg
   {
      OFFSET 11.0 0.0 0.0
      CHANNELS 3 Yrotation Xrotation Zrotation
      JOINT LeftLeg
      {
         OFFSET 0.0 -45.062 0.0
         CHANNELS 3 Yrotation Xrotation Zrotation
         JOINT LeftFoot
         {
            OFFSET 0.0 -42.057999 0.0
            CHANNELS 3 Yrotation Xrotation Zrotation
              End Site
              {
                  OFFSET 0 0 0
              }
         }
      }
   }
   JOINT Spine
   {
      OFFSET 0.0 8.12 0.0
      CHANNELS 3 Yrotation Xrotation Zrotation
      JOINT Spine1
      {
         OFFSET 0.0 17.98 0.0
         CHANNELS 3 Yrotation Xrotation Zrotation
         JOINT Spine2
         {
            OFFSET 0.0 12.76 0.0
            CHANNELS 3 Yrotation Xrotation Zrotation
            JOINT Neck
            {
               OFFSET 0.0 19.139999 0.0
               CHANNELS 3 Yrotation Xrotation Zrotation
               JOINT Neck1
               {
                  OFFSET 0.0 4.25 0.0
                  CHANNELS 3 Yrotation Xrotation Zrotation
                  JOINT Head
                  {
                     OFFSET 0.0 4.25 0.0
                     CHANNELS 3 Yrotation Xrotation Zrotation
                       End Site
                       {
                           OFFSET 0 0 0
                       }
                  }
               }
            }
            JOINT RightShoulder
            {
               OFFSET -2.9 13.34 0.0
               CHANNELS 3 Yrotation Xrotation Zrotation
               JOINT RightArm
               {
                  OFFSET -16.1 0.0 0.0
                  CHANNELS 3 Yrotation Xrotation Zrotation
                  JOINT RightForeArm
                  {
                     OFFSET -28.0 0.0 0.0
                     CHANNELS 3 Yrotation Xrotation Zrotation
                     JOINT RightHand
                     {
                        OFFSET -26.0 0.0 0.0
                        CHANNELS 3 Yrotation Xrotation Zrotation
                        JOINT RightHandThumb1
                        {
                           OFFSET -2.702 0.206 3.388
                           CHANNELS 3 Yrotation Xrotation Zrotation
                           JOINT RightHandThumb2
                           {
                              OFFSET -3.998 0.0 0.0
                              CHANNELS 3 Yrotation Xrotation Zrotation
                              JOINT RightHandThumb3
                              {
                                 OFFSET -2.778 0.0 0.0
                                 CHANNELS 3 Yrotation Xrotation Zrotation
                                   End Site
                                   {
                                       OFFSET 0 0 0
                                   }
                              }
                           }
                        }
                        JOINT RightHandIndex
                        {
                           OFFSET -3.5 0.552 2.148
                           CHANNELS 3 Yrotation Xrotation Zrotation
                           JOINT RightHandIndex1
                           {
                              OFFSET -5.664001 -0.099 1.085
                              CHANNELS 3 Yrotation Xrotation Zrotation
                              JOINT RightHandIndex2
                              {
                                 OFFSET -3.93 0.0 0.0
                                 CHANNELS 3 Yrotation Xrotation Zrotation
                                 JOINT RightHandIndex3
                                 {
                                    OFFSET -2.228 0.0 0.0
                                    CHANNELS 3 Yrotation Xrotation Zrotation
                                      End Site
                                      {
                                          OFFSET 0 0 0
                                      }
                                 }
                              }
                           }
                        }
                        JOINT RightHandMiddle
                        {
                           OFFSET -3.672 0.562 0.822
                           CHANNELS 3 Yrotation Xrotation Zrotation
                           JOINT RightHandMiddle1
                           {
                              OFFSET -5.618 -0.091 0.341
                              CHANNELS 3 Yrotation Xrotation Zrotation
                              JOINT RightHandMiddle2
                              {
                                 OFFSET -4.288001 0.0 0.0
                                 CHANNELS 3 Yrotation Xrotation Zrotation
                                 JOINT RightHandMiddle3
                                 {
                                    OFFSET -2.688 0.0 0.0
                                    CHANNELS 3 Yrotation Xrotation Zrotation
                                      End Site
                                      {
                                          OFFSET 0 0 0
                                      }
                                 }
                              }
                           }
                        }
                        JOINT RightHandRing
                        {
                           OFFSET -3.654001 0.584 -0.14
                           CHANNELS 3 Yrotation Xrotation Zrotation
                           JOINT RightHandRing1
                           {
                              OFFSET -5.032 -0.024 -0.52
                              CHANNELS 3 Yrotation Xrotation Zrotation
                              JOINT RightHandRing2
                              {
                                 OFFSET -3.737 0.0 0.0
                                 CHANNELS 3 Yrotation Xrotation Zrotation
                                 JOINT RightHandRing3
                                 {
                                    OFFSET -2.593 0.0 0.0
                                    CHANNELS 3 Yrotation Xrotation Zrotation
                                      End Site
                                      {
                                          OFFSET 0 0 0
                                      }
                                 }
                              }
                           }
                        }
                        JOINT RightHandPinky
                        {
                           OFFSET -3.432 0.51 -1.305
                           CHANNELS 3 Yrotation Xrotation Zrotation
                           JOINT RightHandPinky1
                           {
                              OFFSET -4.496 -0.024 -1.184
                              CHANNELS 3 Yrotation Xrotation Zrotation
                              JOINT RightHandPinky2
                              {
                                 OFFSET -2.993 0.0 0.0
                                 CHANNELS 3 Yrotation Xrotation Zrotation
                                 JOINT RightHandPinky3
                                 {
                                    OFFSET -1.891 0.0 0.0
                                    CHANNELS 3 Yrotation Xrotation Zrotation
                                      End Site
                                      {
                                          OFFSET 0 0 0
                                      }
                                 }
                              }
                           }
                        }
                     }
                  }
               }
            }
            JOINT LeftShoulder
            {
               OFFSET 2.9 13.34 0.0
               CHANNELS 3 Yrotation Xrotation Zrotation
               JOINT LeftArm
               {
                  OFFSET 16.1 0.0 0.0
                  CHANNELS 3 Yrotation Xrotation Zrotation
                  JOINT LeftForeArm
                  {
                     OFFSET 28.0 0.0 0.0
                     CHANNELS 3 Yrotation Xrotation Zrotation
                     JOINT LeftHand
                     {
                        OFFSET 26.0 0.0 0.0
                        CHANNELS 3 Yrotation Xrotation Zrotation
                        JOINT LeftHandThumb1
                        {
                           OFFSET 2.702 0.206 3.388
                           CHANNELS 3 Yrotation Xrotation Zrotation
                           JOINT LeftHandThumb2
                           {
                              OFFSET 3.998 0.0 0.0
                              CHANNELS 3 Yrotation Xrotation Zrotation
                              JOINT LeftHandThumb3
                              {
                                 OFFSET 2.778 0.0 0.0
                                 CHANNELS 3 Yrotation Xrotation Zrotation
                                   End Site
                                   {
                                       OFFSET 0 0 0
                                   }
                              }
                           }
                        }
                        JOINT LeftHandIndex
                        {
                           OFFSET 3.5 0.552 2.148
                           CHANNELS 3 Yrotation Xrotation Zrotation
                           JOINT LeftHandIndex1
                           {
                              OFFSET 5.664001 -0.099 1.085
                              CHANNELS 3 Yrotation Xrotation Zrotation
                              JOINT LeftHandIndex2
                              {
                                 OFFSET 3.93 0.0 0.0
                                 CHANNELS 3 Yrotation Xrotation Zrotation
                                 JOINT LeftHandIndex3
                                 {
                                    OFFSET 2.228 0.0 0.0
                                    CHANNELS 3 Yrotation Xrotation Zrotation
                                      End Site
                                      {
                                          OFFSET 0 0 0
                                      }
                                 }
                              }
                           }
                        }
                        JOINT LeftHandMiddle
                        {
                           OFFSET 3.672 0.562 0.822
                           CHANNELS 3 Yrotation Xrotation Zrotation
                           JOINT LeftHandMiddle1
                           {
                              OFFSET 5.618 -0.091 0.341
                              CHANNELS 3 Yrotation Xrotation Zrotation
                              JOINT LeftHandMiddle2
                              {
                                 OFFSET 4.288001 0.0 0.0
                                 CHANNELS 3 Yrotation Xrotation Zrotation
                                 JOINT LeftHandMiddle3
                                 {
                                    OFFSET 2.688 0.0 0.0
                                    CHANNELS 3 Yrotation Xrotation Zrotation
                                      End Site
                                      {
                                          OFFSET 0 0 0
                                      }
                                 }
                              }
                           }
                        }
                        JOINT LeftHandRing
                        {
                           OFFSET 3.654001 0.584 -0.14
                           CHANNELS 3 Yrotation Xrotation Zrotation
                           JOINT LeftHandRing1
                           {
                              OFFSET 5.032 -0.024 -0.52
                              CHANNELS 3 Yrotation Xrotation Zrotation
                              JOINT LeftHandRing2
                              {
                                 OFFSET 3.737 0.0 0.0
                                 CHANNELS 3 Yrotation Xrotation Zrotation
                                 JOINT LeftHandRing3
                                 {
                                    OFFSET 2.593 0.0 0.0
                                    CHANNELS 3 Yrotation Xrotation Zrotation
                                      End Site
                                      {
                                          OFFSET 0 0 0
                                      }
                                 }
                              }
                           }
                        }
                        JOINT LeftHandPinky
                        {
                           OFFSET 3.432 0.51 -1.305
                           CHANNELS 3 Yrotation Xrotation Zrotation
                           JOINT LeftHandPinky1
                           {
                              OFFSET 4.496 -0.024 -1.184
                              CHANNELS 3 Yrotation Xrotation Zrotation
                              JOINT LeftHandPinky2
                              {
                                 OFFSET 2.993 0.0 0.0
                                 CHANNELS 3 Yrotation Xrotation Zrotation
                                 JOINT LeftHandPinky3
                                 {
                                    OFFSET 1.891 0.0 0.0
                                    CHANNELS 3 Yrotation Xrotation Zrotation
                                      End Site
                                      {
                                          OFFSET 0 0 0
                                      }
                                 }
                              }
                           }
                        }
                     }
                  }
               }
            }
         }
      }
   }
}
MOTION
Frames: 7
Frame Time: 0.011111
-10.6241 100.154 7.36604 2.19753 171.64 -177.106 15.7084 -18.8057 1.3717 179.89 165.23 -179.52 168.632 -179.577 -178.631 179.665 -142.373 174.361 0.768123 23.7878 4.39958 11.6196 -2.53881 -1.56702 0.000518639 0.31502 0.0801881 180 -179.886 -179.978 0.111183 -0.00239426 1.23363 179.076 179.083 178.242 179.076 179.083 178.242 179.047 179.055 178.188 175.092 179.398 -173.026 3.72206 -2.83414 74.5801 23.9264 45.9506 17.5073 5.38714 40.1131 -81.6777 90 80 57.5944 1.53261e-06 -2.20053e-06 31.1876 2.979e-06 2.72483e-06 10.5938 3.4151e-06 -3.4151e-06 3.4151e-06 0 -0 -0 0 -0 -0 0 -0 -0 3.4151e-06 -3.4151e-06 3.4151e-06 0 -0 -0 0 -0 -0 0 -0 -0 3.4151e-06 -3.4151e-06 3.4151e-06 0 -0 -0 0 -0 -0 0 -0 -0 3.4151e-06 -3.4151e-06 3.4151e-06 0 -0 -0 0 -0 -0 0 -0 -0 4.96292 0.608585 -6.97363 2.37922 1.98286 -79.6494 154.024 143.502 166.418 179.044 110.895 -90.949 115.205 141.399 146.156 4.98179e-06 -1.0451e-07 -84.125 6.9721e-06 -2.9032e-06 -49.3673 1.70755e-06 -3.4151e-06 -3.4151e-06 175 180 91 180 -180 70 180 -180 100 1.70755e-06 -3.4151e-06 -3.4151e-06 1.45113 -2.34788e-06 -67.7444 180 -180 112.256 180 180 129.192 1.70755e-06 -3.4151e-06 -3.4151e-06 5.00001 -6.4033e-07 -89 180 180 76.0938 5.84758e-06 3.63128e-06 -77.9296 1.70755e-06 -3.4151e-06 -3.4151e-06 10 3.41509e-06 -89 180 180 70 9.69729e-07 4.15727e-06 -80 
-10.6531 100.125 6.89766 1.93826 171.503 -176.917 15.7046 -18.7974 1.17842 179.917 164.867 -179.406 168.958 -179.502 -178.739 179.47 -142.101 174.309 0.623119 21.9395 4.30817 11.4408 -2.75345 -1.64221 180 179.74 179.964 180 -179.899 -179.988 0.111631 -0.00223453 1.14674 179.169 179.121 178.238 179.169 179.121 178.238 179.144 179.094 178.184 175.134 179.403 -173.025 3.87111 -2.95162 74.6261 23.9575 46.0377 17.6449 5.36571 40.1271 -81.7129 90 80 57.5944 1.53261e-06 -2.20053e-06 31.1876 2.979e-06 2.72483e-06 10.5938 3.41509e-06 3.41509e-06 -3.41509e-06 3.41509e-06 3.41509e-06 -3.41509e-06 3.41509e-06 3.41509e-06 -3.41509e-06 3.41509e-06 3.41509e-06 -3.41509e-06 3.41509e-06 3.41509e-06 -3.41509e-06 3.41509e-06 3.41509e-06 -3.41509e-06 3.41509e-06 3.41509e-06 -3.41509e-06 3.41509e-06 3.41509e-06 -3.41509e-06 3.41509e-06 3.41509e-06 -3.41509e-06 3.41509e-06 3.41509e-06 -3.41509e-06 3.41509e-06 3.41509e-06 -3.41509e-06 3.41509e-06 3.41509e-06 -3.41509e-06 3.41509e-06 3.41509e-06 -3.41509e-06 3.41509e-06 3.41509e-06 -3.41509e-06 3.41509e-06 3.41509e-06 -3.41509e-06 3.41509e-06 3.41509e-06 -3.41509e-06 4.96292 0.608585 -6.97363 2.32396 1.93582 -79.5812 154.314 144.276 166.427 178.96 110.142 -91.0306 115.205 141.399 146.156 180 -180 95.875 2.18036e-06 2.41154e-06 -49.3672 180 180 -180 175 180 91 180 180 70 180 -180 100 180 180 -180 1.45113 -4.42895e-06 -67.7444 1.69183e-06 -1.46719e-06 -67.7444 0 -0 -50.8083 180 180 -180 5.00001 -2.77476e-06 -89 1.49087e-06 -2.25091e-06 -103.906 0 -0 -77.9296 180 180 -180 10 3.41509e-06 -89 180 180 70 5.23223e-06 4.39036e-06 -80 
-10.6594 100.08 6.44014 1.66616 171.347 -176.974 15.6196 -18.8532 1.26506 179.941 164.537 -179.351 169.263 -179.471 -178.825 178.979 -141.783 174.686 0.530214 20.2145 4.17505 11.2953 -2.94802 -1.70932 0.000679844 0.27035 0.120547 180 -179.883 -179.995 0.111301 -0.00198604 1.02227 179.267 179.176 178.236 179.267 179.176 178.236 179.244 179.151 178.182 175.155 179.406 -173.025 3.94211 -3.01032 74.7293 24.1261 46.2059 17.7694 5.3533 40.1291 -81.7322 90 80 57.5944 5.28101e-06 -1.47387e-06 31.1876 180 -180 -169.406 0 -0 -0 0 -0 -0 0 -0 -0 0 -0 -0 0 -0 -0 0 -0 -0 0 -0 -0 0 -0 -0 0 -0 -0 0 -0 -0 0 -0 -0 0 -0 -0 0 -0 -0 0 -0 -0 0 -0 -0 0 -0 -0 4.96292 0.608585 -6.97363 2.29358 1.90802 -79.4833 154.517 145.064 166.389 178.868 109.381 -91.1215 115.205 141.399 146.156 180 -180 95.875 3.21864e-06 -8.69779e-07 -49.3672 180 180 180 175 -180 91 2.30778e-06 -2.65819e-06 -110 180 180 100 180 180 180 1.45113 -5.28272e-06 -67.7444 1.01136e-06 3.08895e-06 -67.7444 3.16223e-06 5.28248e-06 -50.8083 180 180 180 5 -2.98821e-06 -89 180 -180 76.0938 5.65993e-07 -6.13058e-06 -77.9296 180 180 180 10 1.70755e-06 -89 180 180 70 0 -0 -80 
-10.6385 100.013 6.0029 1.39195 171.14 -176.834 15.5828 -18.9829 1.16728 179.958 164.087 -179.342 169.528 -179.424 -178.906 178.437 -141.416 174.996 0.488443 18.4997 3.96791 11.2456 -3.03607 -1.76548 180 179.677 179.97 180 -179.854 -179.988 0.109929 -0.00189756 0.988921 179.366 179.256 178.237 179.366 179.256 178.237 179.346 179.233 178.183 175.193 179.41 -173.025 4.07728 -3.11825 74.8252 24.2811 46.2999 17.8443 5.35997 40.1397 -81.7237 90 80 57.5944 180 -180 -148.812 180 180 -169.406 0 6.83019e-06 0 0 -6.83019e-06 -0 0 6.83019e-06 0 0 -6.83019e-06 -0 0 6.83019e-06 0 0 -6.83019e-06 -0 0 6.83019e-06 0 0 -6.83019e-06 -0 0 6.83019e-06 0 0 -6.83019e-06 -0 0 6.83019e-06 0 0 -6.83019e-06 -0 0 6.83019e-06 0 0 -6.83019e-06 -0 0 6.83019e-06 0 0 -6.83019e-06 -0 4.96292 0.608585 -6.97363 2.24116 1.86112 -79.43 154.708 145.883 166.384 178.742 108.638 -91.2448 115.205 141.399 146.156 180 -180 95.875 180 -180 130.633 1.70755e-06 -1.70755e-06 1.70755e-06 175 -180 91 1.02461e-05 -5.08984e-06 -110 0 -0 -80 1.70755e-06 -1.70755e-06 1.70755e-06 1.45113 -5.28272e-06 -67.7444 180 180 112.256 4.54995e-06 -1.61979e-06 -50.8083 1.70755e-06 -1.70755e-06 1.70755e-06 5.00001 -5.33608e-06 -89 180 -180 76.0938 180 180 102.07 1.70755e-06 -1.70755e-06 1.70755e-06 10 2.13443e-06 -89 180 180 70 7.42741e-06 1.77425e-06 -80 
-10.5882 99.9177 5.6052 1.12019 170.838 -176.848 15.4931 -19.3167 1.21036 179.971 163.572 -179.325 169.817 -179.409 -178.995 177.564 -140.864 175.701 0.492031 17.0011 3.69138 11.3222 -3.13315 -1.82884 180 179.704 179.935 180 -179.883 -179.936 0.108373 -0.00179196 0.947299 179.466 179.36 178.238 179.466 179.36 178.238 179.449 179.34 178.184 175.235 179.416 -173.024 4.23044 -3.24103 74.9205 24.4739 46.3647 17.88 5.38786 40.1626 -81.6849 89.9999 80 57.5943 7.65318e-06 6.72809e-06 31.1876 180 -180 -169.406 180 -180 180 6.83019e-06 -0 -0 180 -180 180 6.83019e-06 -0 -0 180 -180 180 6.83019e-06 -0 -0 180 -180 180 6.83019e-06 -0 -0 180 -180 180 6.83019e-06 -0 -0 180 -180 180 6.83019e-06 -0 -0 180 -180 180 6.83019e-06 -0 -0 180 -180 180 6.83019e-06 -0 -0 4.96292 0.608585 -6.97363 2.14607 1.7798 -79.3126 154.837 146.693 166.343 178.607 107.922 -91.3774 115.205 141.399 146.156 2.83272e-06 -6.64377e-06 -84.125 5.75554e-06 7.66e-07 -49.3672 180 -180 180 175 -180 91 1.02809e-05 -6.15649e-06 -110 180 -180 100 180 -180 180 1.45112 -8.21757e-06 -67.7444 9.54475e-06 3.33732e-07 -67.7444 180 180 129.192 180 -180 180 4.99999 -4.69575e-06 -89 5.77347e-06 -9.93909e-06 -103.906 0 -0 -77.9296 180 -180 180 10 -1.28066e-06 -89 180 -180 70 4.20934e-07 4.8113e-06 -80 
-10.5202 99.7719 5.24607 0.849962 170.461 -176.953 15.4184 -19.7778 1.31082 179.979 163.05 -179.281 170.095 -179.432 -179.087 176.535 -140.148 176.639 0.529698 15.732 3.37912 11.462 -3.24519 -1.90431 0.000186819 0.227669 0.0263853 180 -179.909 179.993 0.106132 -0.00184884 0.998002 179.567 179.473 178.235 179.567 179.473 178.235 179.553 179.457 178.181 175.289 179.422 -173.024 4.42755 -3.39745 74.9605 24.6664 46.3683 17.925 5.44032 40.2099 -81.6126 90 80 57.5944 1.51976e-06 -2.19695e-06 31.1876 2.98985e-06 1.86639e-06 10.5938 6.83019e-06 -0 -0 180 -180 180 6.83019e-06 -0 -0 180 -180 180 6.83019e-06 -0 -0 180 -180 180 6.83019e-06 -0 -0 180 -180 180 6.83019e-06 -0 -0 180 -180 180 6.83019e-06 -0 -0 180 -180 180 6.83019e-06 -0 -0 180 -180 180 6.83019e-06 -0 -0 180 -180 180 4.96292 0.608585 -6.97363 2.01974 1.6726 -79.2188 154.985 147.486 166.321 178.444 107.271 -91.5376 115.205 141.399 146.156 180 -180 95.875 3.49093e-06 1.60444e-06 -49.3672 180 180 180 175 180 91 180 -180 70 180 -180 100 180 180 180 1.45113 -4.42895e-06 -67.7444 5.61101e-06 -6.03754e-07 -67.7443 3.89477e-06 3.74005e-06 -50.8083 180 180 180 5.00001 -3.20165e-06 -89 9.20841e-07 -5.05725e-06 -103.906 3.22134e-06 -3.98302e-06 -77.9296 180 180 180 10 3.84198e-06 -89 0 -0 -110 9.69729e-07 4.15727e-06 -80 
-10.4465 99.591 4.89606 0.569979 170.178 -176.995 15.4041 -20.1625 1.36884 179.979 162.456 -179.231 170.387 -179.401 -179.158 175.739 -139.483 177.442 0.576828 14.643 3.05963 11.5083 -3.39732 -1.96652 180 179.702 179.97 180 -179.888 -179.988 0.103986 -0.00190195 1.04785 179.67 179.588 178.229 179.67 179.588 178.229 179.659 179.575 178.175 175.337 179.428 -173.023 4.61809 -3.54639 75.0407 24.8934 46.3597 17.9887 5.75482 40.1891 -81.1077 90 80 57.5944 4.822e-06 -3.11856e-06 31.1876 180 -180 -169.406 180 -180 180 6.83019e-06 -0 -0 180 -180 180 6.83019e-06 -0 -0 180 -180 180 6.83019e-06 -0 -0 180 -180 180 6.83019e-06 -0 -0 180 -180 180 6.83019e-06 -0 -0 180 -180 180 6.83019e-06 -0 -0 180 -180 180 6.83019e-06 -0 -0 180 -180 180 6.83019e-06 -0 -0 4.96292 0.608585 -6.97363 1.90756 1.57653 -79.1662 155.116 148.208 166.315 178.276 106.738 -91.7024 115.205 141.399 146.156 180 180 95.875 2.15761e-08 -5.15805e-06 -49.3672 180 -180 180 175 180 91 180 -180 70 180 -180 100 180 -180 180 1.45113 -7.31043e-06 -67.7444 1.71668e-06 2.7656e-08 -67.7444 2.19762e-06 -4.6273e-06 -50.8083 180 -180 180 5 -3.41509e-06 -89 9.20841e-07 -5.05725e-06 -103.906 3.22134e-06 -3.98302e-06 -77.9296 180 -180 180 10 8.53773e-07 -89 180 -180 70 180 180 100 
